<mxfile host="65bd71144e">
    <diagram id="XMLYi7EBuYeKkg_zsZ0b" name="第 1 页">
        <mxGraphModel dx="1437" dy="833" grid="1" gridSize="10" guides="1" tooltips="1" connect="1" arrows="1" fold="1" page="1" pageScale="1" pageWidth="827" pageHeight="1169" math="0" shadow="0">
            <root>
                <mxCell id="0"/>
                <mxCell id="1" parent="0"/>
                <mxCell id="27" value="&lt;div style=&quot;color: rgb(212 , 212 , 212) ; background-color: rgb(30 , 30 , 30) ; font-family: &amp;#34;cn regular&amp;#34; , &amp;#34;consolas&amp;#34; , &amp;#34;courier new&amp;#34; , monospace , &amp;#34;consolas&amp;#34; , &amp;#34;courier new&amp;#34; , monospace ; font-weight: normal ; font-size: 18px ; line-height: 24px&quot;&gt;&lt;div style=&quot;font-family: &amp;#34;cn regular&amp;#34; , &amp;#34;consolas&amp;#34; , &amp;#34;courier new&amp;#34; , monospace , &amp;#34;consolas&amp;#34; , &amp;#34;courier new&amp;#34; , monospace ; line-height: 24px&quot;&gt;&lt;div&gt;&lt;span style=&quot;color: #569cd6&quot;&gt;public&lt;/span&gt; &lt;span style=&quot;color: #569cd6&quot;&gt;class&lt;/span&gt; recursion01 {&lt;/div&gt;&lt;div&gt;&amp;nbsp; &amp;nbsp; &lt;span style=&quot;color: #569cd6&quot;&gt;public&lt;/span&gt; &lt;span style=&quot;color: #569cd6&quot;&gt;static&lt;/span&gt; &lt;span style=&quot;color: #569cd6&quot;&gt;void&lt;/span&gt; main(&lt;span style=&quot;color: #569cd6&quot;&gt;String&lt;/span&gt;[] args) {&lt;/div&gt;&lt;div&gt;&amp;nbsp; &amp;nbsp; &amp;nbsp; &amp;nbsp; &lt;span style=&quot;color: #569cd6&quot;&gt;A&lt;/span&gt; a = &lt;span style=&quot;color: #569cd6&quot;&gt;new&lt;/span&gt; A();&lt;/div&gt;&lt;div&gt;&amp;nbsp; &amp;nbsp; &amp;nbsp; &amp;nbsp; a.test(&lt;span style=&quot;color: #b5cea8&quot;&gt;4&lt;/span&gt;); &lt;span style=&quot;color: #6a9955&quot;&gt;// 打印输出 2&lt;/span&gt;&lt;/div&gt;&lt;div&gt;&amp;nbsp; &amp;nbsp; }&lt;/div&gt;&lt;div&gt;}&lt;/div&gt;&lt;br&gt;&lt;div&gt;&lt;span style=&quot;color: #569cd6&quot;&gt;class&lt;/span&gt; A {&lt;/div&gt;&lt;div&gt;&amp;nbsp; &amp;nbsp; &lt;span style=&quot;color: #569cd6&quot;&gt;public&lt;/span&gt; &lt;span style=&quot;color: #569cd6&quot;&gt;void&lt;/span&gt; test(&lt;span style=&quot;color: #569cd6&quot;&gt;int&lt;/span&gt; n) {&lt;/div&gt;&lt;div&gt;&amp;nbsp; &amp;nbsp; &amp;nbsp; &amp;nbsp; &lt;span style=&quot;color: #6a9955&quot;&gt;// 打印问题&lt;/span&gt;&lt;/div&gt;&lt;div&gt;&amp;nbsp; &amp;nbsp; &amp;nbsp; &amp;nbsp; &lt;span style=&quot;color: #569cd6&quot;&gt;if&lt;/span&gt; (n &amp;gt; &lt;span style=&quot;color: #b5cea8&quot;&gt;2&lt;/span&gt;) {&lt;/div&gt;&lt;div&gt;&amp;nbsp; &amp;nbsp; &amp;nbsp; &amp;nbsp; &amp;nbsp; &amp;nbsp; test(n - &lt;span style=&quot;color: #b5cea8&quot;&gt;1&lt;/span&gt;);&lt;/div&gt;&lt;div&gt;&amp;nbsp; &amp;nbsp; &amp;nbsp; &amp;nbsp; }&lt;/div&gt;&lt;div&gt;&amp;nbsp; &amp;nbsp; &amp;nbsp; &amp;nbsp; System.out.println(&lt;span style=&quot;color: #ce9178&quot;&gt;&quot;n = &quot;&lt;/span&gt; + n);&lt;/div&gt;&lt;div&gt;&amp;nbsp; &amp;nbsp; }&lt;/div&gt;&lt;div&gt;}&lt;/div&gt;&lt;/div&gt;&lt;/div&gt;" style="text;whiteSpace=wrap;html=1;shadow=0;sketch=0;fillColor=#2A2A2A;" vertex="1" parent="1">
                    <mxGeometry y="130" width="440" height="390" as="geometry"/>
                </mxCell>
                <mxCell id="2" value="&lt;blockquote style=&quot;margin: 0 0 0 40px ; border: none ; padding: 0px&quot;&gt;&lt;pre&gt;&lt;font face=&quot;Verdana&quot; size=&quot;1&quot;&gt;&lt;b style=&quot;font-size: 22px&quot;&gt;方法的递归调用&lt;/b&gt;&lt;/font&gt;&lt;/pre&gt;&lt;/blockquote&gt;" style="rounded=0;whiteSpace=wrap;html=1;fillColor=#6d8764;strokeColor=#3A5431;fontColor=#ffffff;align=center;verticalAlign=top;labelPosition=center;verticalLabelPosition=middle;horizontal=1;" vertex="1" parent="1">
                    <mxGeometry x="440" y="120" width="759.58" height="520" as="geometry"/>
                </mxCell>
                <mxCell id="3" value="&lt;h2&gt;栈&lt;/h2&gt;" style="rounded=0;whiteSpace=wrap;html=1;fillColor=#647687;strokeColor=#0F0F0F;fontColor=#ffffff;align=center;labelPosition=center;verticalLabelPosition=middle;verticalAlign=top;" vertex="1" parent="1">
                    <mxGeometry x="459" y="190" width="270" height="430" as="geometry"/>
                </mxCell>
                <mxCell id="4" value="main栈/方法" style="rounded=0;whiteSpace=wrap;html=1;fontFamily=Verdana;fontSize=15;strokeColor=#543B27;fillColor=#B266FF;verticalAlign=top;align=left;fontColor=#ffffff;" vertex="1" parent="1">
                    <mxGeometry x="474" y="510" width="240" height="100" as="geometry"/>
                </mxCell>
                <mxCell id="5" value="A a = new A();" style="rounded=0;whiteSpace=wrap;html=1;fontFamily=Verdana;fontSize=15;strokeColor=#543B27;fillColor=#B266FF;align=left;" vertex="1" parent="1">
                    <mxGeometry x="479" y="540" width="230" height="27" as="geometry"/>
                </mxCell>
                <mxCell id="6" value="&lt;h2&gt;堆&lt;/h2&gt;" style="rounded=0;whiteSpace=wrap;html=1;fillColor=#647687;strokeColor=#0F0F0F;fontColor=#ffffff;align=center;labelPosition=center;verticalLabelPosition=middle;verticalAlign=top;" vertex="1" parent="1">
                    <mxGeometry x="739" y="190" width="430" height="320" as="geometry"/>
                </mxCell>
                <mxCell id="7" value="&lt;font color=&quot;#000000&quot;&gt;a 对象&lt;br&gt;&lt;/font&gt;" style="rounded=0;whiteSpace=wrap;html=1;fontFamily=Verdana;fontSize=15;strokeColor=#006EAF;fillColor=#1ba1e2;verticalAlign=top;align=left;fontColor=#ffffff;" vertex="1" parent="1">
                    <mxGeometry x="770" y="240" width="201" height="160" as="geometry"/>
                </mxCell>
                <mxCell id="31" style="edgeStyle=orthogonalEdgeStyle;curved=1;html=1;exitX=0;exitY=0.5;exitDx=0;exitDy=0;entryX=0;entryY=0.25;entryDx=0;entryDy=0;fontFamily=Verdana;fontSize=22;strokeWidth=3;" edge="1" parent="1" source="8" target="29">
                    <mxGeometry relative="1" as="geometry">
                        <Array as="points">
                            <mxPoint x="440" y="463"/>
                            <mxPoint x="440" y="351"/>
                        </Array>
                    </mxGeometry>
                </mxCell>
                <mxCell id="8" value="test栈/方法&lt;br&gt;n = 4&lt;br&gt;test(4-1)&lt;br&gt;println(&quot;n = &quot; + n)" style="rounded=0;whiteSpace=wrap;html=1;fontFamily=Verdana;fontSize=15;strokeColor=#543B27;fillColor=#FFB366;verticalAlign=top;align=left;fontColor=#ffffff;" vertex="1" parent="1">
                    <mxGeometry x="474" y="420" width="240" height="85" as="geometry"/>
                </mxCell>
                <mxCell id="10" value="&lt;h2&gt;方法区&lt;/h2&gt;" style="rounded=0;whiteSpace=wrap;html=1;fillColor=#647687;strokeColor=#0F0F0F;fontColor=#ffffff;align=center;labelPosition=center;verticalLabelPosition=middle;verticalAlign=top;" vertex="1" parent="1">
                    <mxGeometry x="739" y="530" width="430" height="90" as="geometry"/>
                </mxCell>
                <mxCell id="12" value="a.test(4);" style="rounded=0;whiteSpace=wrap;html=1;fontFamily=Verdana;fontSize=15;strokeColor=#543B27;fillColor=#B266FF;align=left;" vertex="1" parent="1">
                    <mxGeometry x="479" y="572.5" width="230" height="30" as="geometry"/>
                </mxCell>
                <mxCell id="28" style="edgeStyle=orthogonalEdgeStyle;html=1;exitX=1;exitY=0.5;exitDx=0;exitDy=0;entryX=0;entryY=0.25;entryDx=0;entryDy=0;fontFamily=Verdana;fontSize=22;curved=1;strokeWidth=3;" edge="1" parent="1" source="5" target="7">
                    <mxGeometry relative="1" as="geometry">
                        <Array as="points">
                            <mxPoint x="720" y="554"/>
                            <mxPoint x="720" y="280"/>
                        </Array>
                    </mxGeometry>
                </mxCell>
                <mxCell id="32" style="edgeStyle=orthogonalEdgeStyle;curved=1;html=1;exitX=0;exitY=0.5;exitDx=0;exitDy=0;entryX=0;entryY=0.25;entryDx=0;entryDy=0;fontFamily=Verdana;fontSize=22;strokeWidth=3;" edge="1" parent="1" source="29" target="30">
                    <mxGeometry relative="1" as="geometry">
                        <Array as="points">
                            <mxPoint x="440" y="373"/>
                            <mxPoint x="440" y="261"/>
                        </Array>
                    </mxGeometry>
                </mxCell>
                <mxCell id="29" value="test栈/方法&lt;br&gt;n = 3&lt;br&gt;test(3-1)&lt;br&gt;println(&quot;n = &quot; + n)" style="rounded=0;whiteSpace=wrap;html=1;fontFamily=Verdana;fontSize=15;strokeColor=#432D57;fillColor=#76608a;verticalAlign=top;align=left;fontColor=#ffffff;" vertex="1" parent="1">
                    <mxGeometry x="474" y="330" width="240" height="85" as="geometry"/>
                </mxCell>
                <mxCell id="33" style="edgeStyle=orthogonalEdgeStyle;curved=1;html=1;exitX=0;exitY=0.75;exitDx=0;exitDy=0;entryX=0;entryY=0.75;entryDx=0;entryDy=0;fontFamily=Verdana;fontSize=22;strokeWidth=3;strokeColor=#0066CC;" edge="1" parent="1" source="30" target="29">
                    <mxGeometry relative="1" as="geometry">
                        <Array as="points">
                            <mxPoint x="550" y="304"/>
                            <mxPoint x="550" y="394"/>
                        </Array>
                    </mxGeometry>
                </mxCell>
                <mxCell id="36" value="&lt;font style=&quot;font-size: 14px&quot; color=&quot;#000000&quot;&gt;返回&lt;/font&gt;" style="edgeLabel;html=1;align=center;verticalAlign=middle;resizable=0;points=[];fontSize=22;fontFamily=Verdana;labelBackgroundColor=none;" vertex="1" connectable="0" parent="33">
                    <mxGeometry x="0.1405" y="-4" relative="1" as="geometry">
                        <mxPoint y="-1" as="offset"/>
                    </mxGeometry>
                </mxCell>
                <mxCell id="30" value="test栈/方法&lt;br&gt;n = 2&lt;br&gt;println(&quot;n = &quot; + n)" style="rounded=0;whiteSpace=wrap;html=1;fontFamily=Verdana;fontSize=15;strokeColor=#3A5431;fillColor=#6d8764;verticalAlign=top;align=left;fontColor=#ffffff;" vertex="1" parent="1">
                    <mxGeometry x="474" y="240" width="240" height="85" as="geometry"/>
                </mxCell>
                <mxCell id="34" style="edgeStyle=orthogonalEdgeStyle;curved=1;html=1;exitX=0.25;exitY=0;exitDx=0;exitDy=0;entryX=0;entryY=0.75;entryDx=0;entryDy=0;fontFamily=Verdana;fontSize=22;strokeColor=#0066CC;strokeWidth=3;" edge="1" parent="1" source="8" target="8">
                    <mxGeometry relative="1" as="geometry">
                        <Array as="points">
                            <mxPoint x="610" y="490"/>
                        </Array>
                    </mxGeometry>
                </mxCell>
                <mxCell id="37" value="&lt;font color=&quot;#000000&quot;&gt;返回&lt;/font&gt;" style="edgeLabel;html=1;align=center;verticalAlign=middle;resizable=0;points=[];fontSize=14;fontFamily=Verdana;fontColor=#FF9933;labelBackgroundColor=none;" vertex="1" connectable="0" parent="34">
                    <mxGeometry x="0.2979" y="-16" relative="1" as="geometry">
                        <mxPoint as="offset"/>
                    </mxGeometry>
                </mxCell>
                <mxCell id="38" value="&lt;b&gt;&lt;font style=&quot;font-size: 18px&quot;&gt;控制台输出&lt;/font&gt;&lt;/b&gt;&lt;br&gt;n = 2&lt;br&gt;n = 3&lt;br&gt;n = 4" style="rounded=0;whiteSpace=wrap;html=1;fontFamily=Verdana;fontSize=15;strokeColor=#543B27;fillColor=#B266FF;verticalAlign=top;align=left;fontColor=#ffffff;spacingLeft=11;" vertex="1" parent="1">
                    <mxGeometry x="120" y="530" width="310" height="100" as="geometry"/>
                </mxCell>
                <mxCell id="39" style="edgeStyle=orthogonalEdgeStyle;curved=1;html=1;exitX=0.25;exitY=1;exitDx=0;exitDy=0;fontFamily=Verdana;fontSize=18;fontColor=#000000;strokeColor=#0066CC;strokeWidth=3;entryX=0.5;entryY=1;entryDx=0;entryDy=0;" edge="1" parent="1" source="8" target="12">
                    <mxGeometry relative="1" as="geometry">
                        <Array as="points">
                            <mxPoint x="534" y="515"/>
                            <mxPoint x="630" y="515"/>
                            <mxPoint x="630" y="603"/>
                        </Array>
                    </mxGeometry>
                </mxCell>
                <mxCell id="41" value="返回" style="edgeLabel;html=1;align=center;verticalAlign=middle;resizable=0;points=[];fontSize=18;fontFamily=Verdana;fontColor=#000000;labelBackgroundColor=none;" vertex="1" connectable="0" parent="39">
                    <mxGeometry x="0.05" y="2" relative="1" as="geometry">
                        <mxPoint as="offset"/>
                    </mxGeometry>
                </mxCell>
            </root>
        </mxGraphModel>
    </diagram>
</mxfile>